<?xml version="1.0" encoding="utf-8"?>
<!-- Generator: Adobe Illustrator 17.1.0, SVG Export Plug-In . SVG Version: 6.00 Build 0)  -->
<!DOCTYPE svg PUBLIC "-//W3C//DTD SVG 1.1//EN" "http://www.w3.org/Graphics/SVG/1.1/DTD/svg11.dtd">
<svg version="1.1" id="Ebene_1" xmlns="http://www.w3.org/2000/svg" xmlns:xlink="http://www.w3.org/1999/xlink" x="0px" y="0px"
	 viewBox="0 160 841.9 250" enable-background="new 0 0 841.9 595.3" xml:space="preserve">
<g>
	<path fill="#3C3C3B" d="M326.9,302.4l-33.9-43.3h26l21,27.5l21.4-27.5h26.8l-34.9,43.3l40.4,51.1h-26L340,318.2l-28.4,35.3h-26.7
		L326.9,302.4z"/>
	<path fill="#3C3C3B" d="M424.6,210.8v142.7h-21.8V210.8H424.6z"/>
	<path fill="#279DD5" d="M472.1,279.4v74.1h-21.8v-74.1h-13.4v-20.4h13.4v-48.7h21.8v48.7h13.4v20.4H472.1z"/>
	<path fill="#279DD5" d="M499.9,259.1h21.8v8.4c4-4.2,7.6-7.1,10.7-8.6c3.2-1.6,6.9-2.4,11.2-2.4c5.8,0,11.8,1.9,18,5.6l-10,20
		c-4.1-3-8.2-4.5-12.1-4.5c-11.9,0-17.8,9-17.8,27v49h-21.8V259.1z"/>
	<path fill="#279DD5" d="M632.5,259.1h21.9v94.5h-21.9v-9.9c-9,8.4-18.7,12.6-29,12.6c-13.1,0-23.9-4.7-32.4-14.2
		c-8.5-9.6-12.7-21.7-12.7-36.1c0-14.2,4.2-26,12.7-35.4c8.5-9.4,19.1-14.2,31.8-14.2c11,0,20.9,4.5,29.6,13.6V259.1z M580.8,306
		c0,9.1,2.4,16.4,7.3,22.1c5,5.8,11.2,8.6,18.8,8.6c8.1,0,14.6-2.8,19.6-8.3c5-5.8,7.5-13.1,7.5-21.9c0-8.9-2.5-16.2-7.5-21.9
		c-5-5.6-11.4-8.4-19.4-8.4c-7.5,0-13.8,2.8-18.8,8.5C583.2,290.4,580.8,297.5,580.8,306z"/>
	<path fill="#279DD5" d="M674.7,223.3c0-3.8,1.4-7.1,4.2-9.9c2.8-2.8,6.1-4.2,10-4.2c3.9,0,7.3,1.4,10.1,4.2c2.8,2.7,4.2,6,4.2,10
		s-1.4,7.3-4.2,10.1c-2.7,2.8-6,4.2-10,4.2c-3.9,0-7.3-1.4-10.1-4.2C676.1,230.7,674.7,227.3,674.7,223.3z M699.8,259.1v94.5H678
		v-94.5H699.8z"/>
	<path fill="#279DD5" d="M745.3,210.8v142.7h-21.8V210.8H745.3z"/>
	<g>
		<g>
			<path fill="#279DD5" d="M85.8,355.1c7.7,3.1,16.8,6.6,26,8.7c8.6,2,17.5,2.9,25.8,3.6v-28.2c-8.3-0.6-17.2-1.4-26-3.5
				c-9.2-2.1-18.1-5.6-25.8-8.7V355.1z"/>
		</g>
		<g>
			<path fill="#279DD5" d="M142.1,273.8v28.3c7.7-0.3,16.8-0.8,25.8-2.3c9-1.5,17.8-4,26-6.6v-29.4c-7.7,2.6-16.8,5.4-25.8,7.2
				C159,272.8,149.9,273.4,142.1,273.8z"/>
		</g>
		<g>
			<path fill="#279DD5" d="M142.1,367.6h0.2c7.1,0,16.4-0.1,25.6-1.2c9.2-1.1,18.2-3.1,26-5V332c-7.8,2.1-16.8,4.4-25.8,5.6
				c-9.2,1.3-18.2,1.6-26,1.7V367.6z"/>
		</g>
		<g>
			<path fill="#279DD5" d="M198.1,262.3v29.5c8.2-3.2,17-6.9,25.6-11.9c9.4-5.3,18.5-12,26.2-17.8v-31.6c-7.6,6.1-16.5,13-25.6,18.6
				C215.5,254.5,206.5,258.6,198.1,262.3z"/>
		</g>
		<g>
			<path fill="#279DD5" d="M198.1,330.7v29.5c8.2-2.6,17-5.6,25.7-9.7c9.3-4.4,18.4-10,26.1-15V304c-8,5.5-16.6,11.2-25.6,15.9
				C215.5,324.4,206.5,327.8,198.1,330.7z"/>
		</g>
		<g>
			<path fill="#279DD5" d="M85.8,289.9c7.6,3.2,16.7,6.8,26,8.9c8.7,2,17.5,2.8,25.8,3.2v-28.3c-8.3-0.4-17.2-1-26-3.1
				c-9.2-2.1-18.1-5.6-25.8-8.9V289.9z"/>
		</g>
		<g>
			<path fill="#3C3C3B" d="M142.2,306.5v28.3c7.7-0.1,16.7-0.4,25.8-1.7c9.1-1.3,18.2-3.6,26-5.8v-29.4c-8.1,2.5-16.8,4.9-25.8,6.4
				C159,305.8,150,306.3,142.2,306.5z"/>
		</g>
		<g>
			<path fill="#3C3C3B" d="M198.3,296.5v29.3c8.3-3,17-6.3,25.4-10.7c9.3-4.8,18.4-11,26.1-16.4v-31.3c-7.5,5.7-16.3,12-25.4,17.1
				C215.7,289.5,206.7,293.2,198.3,296.5z"/>
		</g>
		<g>
			<path fill="#3C3C3B" d="M90.9,296.4c-1.7-0.7-3.4-1.4-5-2v28.1c1.6,0.7,3.3,1.3,5,2V296.4z"/>
			<path fill="#3C3C3B" d="M95.5,326.2c4,1.5,8.3,2.9,12.6,4.1v-28c-4.3-1.2-8.5-2.6-12.6-4.1V326.2z"/>
			<path fill="#3C3C3B" d="M112.7,303.4v28c8.5,1.9,17,2.7,25,3.3v-28.2C129.7,306,121.1,305.2,112.7,303.4z"/>
		</g>
	</g>
</g>
</svg>
